<svg width="78" height="65" viewBox="0 0 78 65" fill="none" xmlns="http://www.w3.org/2000/svg">
<path d="M46.4673 12.0174C43.892 10.5269 40.8284 10.1325 37.9596 10.9012L16.825 16.5642C10.8328 18.1698 7.29551 24.2996 8.89483 30.2684L13.4234 47.1691C15.0227 53.1379 21.1724 56.6721 27.1432 55.0722L48.2778 49.4093C54.2486 47.8094 57.8094 41.6732 56.2101 35.7045L51.6816 18.8037C50.9134 15.937 49.0437 13.503 46.4673 12.0174Z" fill="url(#paint0_linear_0_132)"/>
<g filter="url(#filter0_f_0_132)">
<path d="M40.6136 17.5757C38.9886 16.5794 37.0669 16.2965 35.2766 16.7762L22.0873 20.3102C18.3477 21.3122 16.1824 25.2948 17.2324 29.2137L20.2057 40.3102C21.2558 44.2291 25.1357 46.5918 28.8619 45.5934L42.0512 42.0593C45.7774 41.0609 47.9574 37.0744 46.9074 33.1555L43.9341 22.059C43.4297 20.1768 42.239 18.5689 40.6136 17.5757Z" fill="#EF5641"/>
</g>
<g filter="url(#filter1_b_0_132)">
<mask id="path-3-outside-1_0_132" maskUnits="userSpaceOnUse" x="19.5297" y="18.5027" width="52" height="47" fill="black">
<rect fill="white" x="19.5297" y="18.5027" width="52" height="47"/>
<path d="M66.31 23.1638C63.964 20.8129 60.7751 19.5027 57.46 19.5027H33.0384C26.1141 19.5027 20.5297 25.0896 20.5297 31.9867V51.516C20.5297 58.4131 26.1389 64 33.0384 64H57.46C64.3596 64 69.9712 58.4131 69.9712 51.516V31.9867C69.9712 28.6741 68.6585 25.5098 66.31 23.1638Z"/>
</mask>
<path d="M66.31 23.1638C63.964 20.8129 60.7751 19.5027 57.46 19.5027H33.0384C26.1141 19.5027 20.5297 25.0896 20.5297 31.9867V51.516C20.5297 58.4131 26.1389 64 33.0384 64H57.46C64.3596 64 69.9712 58.4131 69.9712 51.516V31.9867C69.9712 28.6741 68.6585 25.5098 66.31 23.1638Z" fill="#FFAC95" fill-opacity="0.4"/>
<path d="M65.6022 23.8702C65.9923 24.2611 66.6255 24.2618 67.0164 23.8717C67.4073 23.4816 67.408 22.8484 67.0179 22.4575L65.6022 23.8702ZM67.0168 22.4563C66.626 22.066 65.9929 22.0664 65.6025 22.4571C65.2122 22.8478 65.2126 23.481 65.6033 23.8713L67.0168 22.4563ZM67.0179 22.4575C64.4826 19.9169 61.0383 18.5027 57.46 18.5027V20.5027C60.5118 20.5027 63.4454 21.7089 65.6022 23.8702L67.0179 22.4575ZM57.46 18.5027H33.0384V20.5027H57.46V18.5027ZM33.0384 18.5027C25.563 18.5027 19.5297 24.5361 19.5297 31.9867H21.5297C21.5297 25.643 26.6653 20.5027 33.0384 20.5027V18.5027ZM19.5297 31.9867V51.516H21.5297V31.9867H19.5297ZM19.5297 51.516C19.5297 58.9678 25.589 65 33.0384 65V63C26.6887 63 21.5297 57.8584 21.5297 51.516H19.5297ZM33.0384 65H57.46V63H33.0384V65ZM57.46 65C64.9091 65 70.9712 58.9681 70.9712 51.516H68.9712C68.9712 57.8581 63.81 63 57.46 63V65ZM70.9712 51.516V31.9867H68.9712V51.516H70.9712ZM70.9712 31.9867C70.9712 28.4082 69.5526 24.9896 67.0168 22.4563L65.6033 23.8713C67.7644 26.0301 68.9712 28.94 68.9712 31.9867H70.9712Z" fill="url(#paint1_linear_0_132)" mask="url(#path-3-outside-1_0_132)"/>
</g>
<g filter="url(#filter2_bd_0_132)">
<mask id="path-5-inside-2_0_132" fill="white">
<path d="M61.591 35.472L61.3932 35.6698L50.2417 44.594C48.8598 45.6817 47.1516 46.275 45.3989 46.275C43.6412 46.275 41.9627 45.6817 40.5783 44.594L29.3304 35.8181L29.0066 35.4968C28.4405 34.7551 28.5146 33.6922 29.1821 33.0247C29.8224 32.3572 30.8853 32.2831 31.6542 32.8517L42.7785 41.7511C44.2345 42.9402 46.2888 42.9402 47.7226 41.7511L58.8692 32.8517C59.2425 32.5056 59.7369 32.33 60.256 32.3572C60.748 32.4067 61.2201 32.6316 61.5638 33C62.1818 33.7169 62.1818 34.7551 61.591 35.472Z"/>
</mask>
<path d="M61.591 35.472L61.3932 35.6698L50.2417 44.594C48.8598 45.6817 47.1516 46.275 45.3989 46.275C43.6412 46.275 41.9627 45.6817 40.5783 44.594L29.3304 35.8181L29.0066 35.4968C28.4405 34.7551 28.5146 33.6922 29.1821 33.0247C29.8224 32.3572 30.8853 32.2831 31.6542 32.8517L42.7785 41.7511C44.2345 42.9402 46.2888 42.9402 47.7226 41.7511L58.8692 32.8517C59.2425 32.5056 59.7369 32.33 60.256 32.3572C60.748 32.4067 61.2201 32.6316 61.5638 33C62.1818 33.7169 62.1818 34.7551 61.591 35.472Z" fill="url(#paint2_linear_0_132)"/>
<path d="M61.3932 35.6698L61.5182 35.826L61.5268 35.8191L61.5346 35.8112L61.3932 35.6698ZM50.2417 44.594L50.3654 44.7512L50.3666 44.7501L50.2417 44.594ZM40.5783 44.594L40.7019 44.4367L40.7014 44.4363L40.5783 44.594ZM29.3304 35.8181L29.1895 35.9601L29.198 35.9685L29.2074 35.9758L29.3304 35.8181ZM29.0066 35.4968L28.8476 35.6181L28.8559 35.629L28.8657 35.6387L29.0066 35.4968ZM29.1821 33.0247L29.3235 33.1661L29.3264 33.1631L29.1821 33.0247ZM31.6542 32.8517L31.7792 32.6954L31.7731 32.6908L31.6542 32.8517ZM42.7785 41.7511L42.905 41.5962L42.9034 41.5949L42.7785 41.7511ZM47.7226 41.7511L47.5978 41.5948L47.595 41.5972L47.7226 41.7511ZM58.8692 32.8517L58.994 33.0079L58.9998 33.0033L59.0052 32.9983L58.8692 32.8517ZM60.256 32.3572L60.2761 32.158L60.2665 32.1575L60.256 32.3572ZM61.5638 33L61.7154 32.8693L61.71 32.8635L61.5638 33ZM61.4495 35.3306L61.2518 35.5284L61.5346 35.8112L61.7324 35.6135L61.4495 35.3306ZM61.2682 35.5137L50.1167 44.4378L50.3666 44.7501L61.5182 35.826L61.2682 35.5137ZM50.118 44.4368C48.7712 45.4969 47.1065 46.075 45.3989 46.075V46.475C47.1967 46.475 48.9484 45.8665 50.3654 44.7511L50.118 44.4368ZM45.3989 46.075C43.6871 46.075 42.0518 45.4974 40.7019 44.4367L40.4548 44.7513C41.8736 45.866 43.5954 46.475 45.3989 46.475V46.075ZM40.7014 44.4363L29.4534 35.6605L29.2074 35.9758L40.4553 44.7517L40.7014 44.4363ZM29.4713 35.6762L29.1475 35.3548L28.8657 35.6387L29.1895 35.9601L29.4713 35.6762ZM29.1656 35.3754C28.661 34.7145 28.7259 33.7637 29.3235 33.1661L29.0407 32.8833C28.3033 33.6206 28.2199 34.7958 28.8476 35.6181L29.1656 35.3754ZM29.3264 33.1631C29.8934 32.5721 30.843 32.5005 31.5352 33.0125L31.7731 32.6908C30.9277 32.0656 29.7513 32.1424 29.0378 32.8862L29.3264 33.1631ZM31.5292 33.0078L42.6536 41.9073L42.9034 41.5949L31.7791 32.6955L31.5292 33.0078ZM42.652 41.906C44.1811 43.1547 46.3419 43.156 47.8503 41.9051L47.595 41.5972C46.2358 42.7244 44.288 42.7256 42.905 41.5962L42.652 41.906ZM47.8474 41.9074L58.994 33.0079L58.7444 32.6954L47.5978 41.5948L47.8474 41.9074ZM59.0052 32.9983C59.3377 32.6901 59.7788 32.5325 60.2456 32.557L60.2665 32.1575C59.695 32.1276 59.1473 32.3211 58.7332 32.705L59.0052 32.9983ZM60.236 32.5562C60.6816 32.601 61.1083 32.8049 61.4175 33.1364L61.71 32.8635C61.332 32.4584 60.8144 32.2123 60.276 32.1582L60.236 32.5562ZM61.4123 33.1306C61.966 33.7728 61.9662 34.7022 61.4366 35.3449L61.7453 35.5992C62.3973 34.8081 62.3976 33.6609 61.7152 32.8694L61.4123 33.1306Z" fill="url(#paint3_linear_0_132)" fill-opacity="0.5" mask="url(#path-5-inside-2_0_132)"/>
</g>
<defs>
<filter id="filter0_f_0_132" x="0.96759" y="0.54834" width="62.2035" height="61.2738" filterUnits="userSpaceOnUse" color-interpolation-filters="sRGB">
<feFlood flood-opacity="0" result="BackgroundImageFix"/>
<feBlend mode="normal" in="SourceGraphic" in2="BackgroundImageFix" result="shape"/>
<feGaussianBlur stdDeviation="8" result="effect1_foregroundBlur_0_132"/>
</filter>
<filter id="filter1_b_0_132" x="4.52972" y="3.50269" width="81.4415" height="76.4973" filterUnits="userSpaceOnUse" color-interpolation-filters="sRGB">
<feFlood flood-opacity="0" result="BackgroundImageFix"/>
<feGaussianBlur in="BackgroundImageFix" stdDeviation="7.5"/>
<feComposite in2="SourceAlpha" operator="in" result="effect1_backgroundBlur_0_132"/>
<feBlend mode="normal" in="SourceGraphic" in2="effect1_backgroundBlur_0_132" result="shape"/>
</filter>
<filter id="filter2_bd_0_132" x="13.627" y="17.3545" width="63.4037" height="43.9205" filterUnits="userSpaceOnUse" color-interpolation-filters="sRGB">
<feFlood flood-opacity="0" result="BackgroundImageFix"/>
<feGaussianBlur in="BackgroundImageFix" stdDeviation="7.5"/>
<feComposite in2="SourceAlpha" operator="in" result="effect1_backgroundBlur_0_132"/>
<feColorMatrix in="SourceAlpha" type="matrix" values="0 0 0 0 0 0 0 0 0 0 0 0 0 0 0 0 0 0 127 0" result="hardAlpha"/>
<feOffset dx="5" dy="5"/>
<feGaussianBlur stdDeviation="5"/>
<feColorMatrix type="matrix" values="0 0 0 0 1 0 0 0 0 0.447059 0 0 0 0 0.368627 0 0 0 0.5 0"/>
<feBlend mode="normal" in2="effect1_backgroundBlur_0_132" result="effect2_dropShadow_0_132"/>
<feBlend mode="normal" in="SourceGraphic" in2="effect2_dropShadow_0_132" result="shape"/>
</filter>
<linearGradient id="paint0_linear_0_132" x1="36.3934" y1="34.7211" x2="5.61972" y2="63.8019" gradientUnits="userSpaceOnUse">
<stop stop-color="#FFA78F"/>
<stop offset="1" stop-color="#F23E2C"/>
</linearGradient>
<linearGradient id="paint1_linear_0_132" x1="28.4" y1="24.6867" x2="56.0169" y2="62.6913" gradientUnits="userSpaceOnUse">
<stop stop-color="white" stop-opacity="0.25"/>
<stop offset="1" stop-color="white" stop-opacity="0"/>
</linearGradient>
<linearGradient id="paint2_linear_0_132" x1="59.6624" y1="34.8683" x2="22.6409" y2="37.7647" gradientUnits="userSpaceOnUse">
<stop stop-color="white"/>
<stop offset="1" stop-color="white" stop-opacity="0.2"/>
</linearGradient>
<linearGradient id="paint3_linear_0_132" x1="60.5995" y1="39.6092" x2="28.3892" y2="42.8291" gradientUnits="userSpaceOnUse">
<stop stop-color="white"/>
<stop offset="1" stop-color="white" stop-opacity="0"/>
</linearGradient>
</defs>
</svg>
