<svg width="24" height="24" viewBox="0 0 24 24" fill="none" xmlns="http://www.w3.org/2000/svg">
<path d="M21.71 20.2899L18 16.6099C19.4401 14.8143 20.1375 12.5352 19.9488 10.2412C19.7601 7.94721 18.6997 5.81269 16.9855 4.27655C15.2714 2.74041 13.0338 1.91941 10.7329 1.98237C8.43203 2.04534 6.24272 2.98747 4.61514 4.61505C2.98756 6.24263 2.04543 8.43194 1.98247 10.7328C1.91951 13.0337 2.7405 15.2713 4.27664 16.9854C5.81278 18.6996 7.9473 19.76 10.2413 19.9487C12.5353 20.1374 14.8144 19.44 16.61 17.9999L20.29 21.6799C20.383 21.7736 20.4936 21.848 20.6154 21.8988C20.7373 21.9496 20.868 21.9757 21 21.9757C21.132 21.9757 21.2627 21.9496 21.3846 21.8988C21.5064 21.848 21.617 21.7736 21.71 21.6799C21.8902 21.4934 21.991 21.2442 21.991 20.9849C21.991 20.7256 21.8902 20.4764 21.71 20.2899ZM11 17.9999C9.61553 17.9999 8.26215 17.5894 7.111 16.8202C5.95986 16.051 5.06265 14.9578 4.53284 13.6787C4.00303 12.3996 3.8644 10.9921 4.1345 9.63427C4.4046 8.27641 5.07128 7.02912 6.05025 6.05016C7.02922 5.07119 8.2765 4.4045 9.63436 4.13441C10.9922 3.86431 12.3997 4.00293 13.6788 4.53275C14.9579 5.06256 16.0511 5.95977 16.8203 7.11091C17.5895 8.26206 18 9.61544 18 10.9999C18 12.8564 17.2625 14.6369 15.9497 15.9497C14.637 17.2624 12.8565 17.9999 11 17.9999Z" fill="white"/>
</svg>
